# xmcd
#
# Track frame offsets:
#	150
#	13583
#	26550
#	34336
#	46632
#	54418
#	63962
#	78176
#	94070
#	102509
#	112344
#	125498
#	134930
#	147264
#	159752
#	175867
#	187725
#	204006
#	214274
#	224286
#
# Disc length: 3126
#
# Revision: 2
# Processed by: cddbd v1.5.1PL0 Copyright (c) Steve Scherf et al.
# Submitted via: ExactAudioCopy v0.90b4
# Normalized: r1:DSETVAR1
#
DISCID=160c3414
DTITLE=Various Artist - Country Gold
DYEAR=1999
DGENRE=Country
TTITLE0=Lynn Anderson - Rose Garden
TTITLE1=Faron Young - It's Four In The Morning
TTITLE2=George Jones - Jambalaya
TTITLE3=Merle Haggard - Okie From Muskogee
TTITLE4=Roger Miller - Dang Me
TTITLE5=Skeeter Davis - Turn Your Radio On
TTITLE6=B.J. Thomas - I'm So Lonesome I Could Cry
TTITLE7=Tom T. Hall - Old Dogs And Children And Watermelon Wine
TTITLE8=Willie Nelson - Slow Down Old World
TTITLE9=Dave Dudley - Cowboy Boots
TTITLE10=Donna Fargo - Daddy
TTITLE11=Jeanie C. Riley - The Girl Most Likely
TTITLE12=Frankie Laine - High Noon (Do Not Forsake Me)
TTITLE13=Kenny Rogers and The First Edition - Reuben James
TTITLE14=Randy Van Warmer - Just When I Needed You Most
TTITLE15=Charley Pride - There Goes My Everything
TTITLE16=Jim Ed Brown - Whispering Hope
TTITLE17=Patsy Cline - Three Cigarettes In An Ashtray
TTITLE18=Johnny Cash - Hey Porter
TTITLE19=Glen Yarborough - Baby, The Rain Must Fall
EXTD=
EXTT0=
EXTT1=
EXTT2=
EXTT3=
EXTT4=
EXTT5=
EXTT6=
EXTT7=
EXTT8=
EXTT9=
EXTT10=
EXTT11=
EXTT12=
EXTT13=
EXTT14=
EXTT15=
EXTT16=
EXTT17=
EXTT18=
EXTT19=
PLAYORDER=
